{"title":"Entertainment (2014) - 720p - Blu-Ray - Hindi - x264 - AC3 - 5.1","uid":11240211,"size":1179007446,"categoryP":"video","categoryS":"hd___movies","magnet":"?xt=urn:btih:f2c1d7531b8afbe5e87d00ef6e6a787fad843b41&amp;dn=Entertainment+%282014%29+-+720p+-+Blu-Ray+-+Hindi+-+x264+-+AC3+-+5.1&amp;tr=udp%3A%2F%2Ftracker.openbittorrent.com%3A80&amp;tr=udp%3A%2F%2Fopen.demonii.com%3A1337&amp;tr=udp%3A%2F%2Ftracker.coppersurfer.tk%3A6969&amp;tr=udp%3A%2F%2Fexodus.desync.com%3A6969","seeders":4,"leechers":4,"uploader":"inovai","files":4,"time":1413659938,"description":"Entertainment (2014) - 720p - Blu-Ray - Hindi - x264 - AC3 - 5.1 - ESubs - Mafiaking - Team TellyTNT\n\nCover:\n &lt;a href=&quot;\nhttp://forum.primetimeshow.in/viewtopic.php?f=7&amp;t=569&quot; rel=&quot;nofollow&quot; target=&quot;_NEW&quot;&gt;\nhttp://forum.primetimeshow.in/viewtopic.php?f=7&amp;t=569&lt;/a&gt;\n\n\nRatings: 5.1/10\n\nGENRE: Comedy\n\nScreenshots:\n &lt;a href=&quot;\nhttp://m.primetimeshow.in/share-B42B_5442A049.html&quot; rel=&quot;nofollow&quot; target=&quot;_NEW&quot;&gt;\nhttp://m.primetimeshow.in/share-B42B_5442A049.html&lt;/a&gt;\n &lt;a href=&quot;\nhttp://m.primetimeshow.in/share-4049_5442A049.html&quot; rel=&quot;nofollow&quot; target=&quot;_NEW&quot;&gt;\nhttp://m.primetimeshow.in/share-4049_5442A049.html&lt;/a&gt;\n &lt;a href=&quot;\nhttp://m.primetimeshow.in/share-84C9_5442A049.html&quot; rel=&quot;nofollow&quot; target=&quot;_NEW&quot;&gt;\nhttp://m.primetimeshow.in/share-84C9_5442A049.html&lt;/a&gt;\n &lt;a href=&quot;\nhttp://m.primetimeshow.in/share-E082_5442A049.html&quot; rel=&quot;nofollow&quot; target=&quot;_NEW&quot;&gt;\nhttp://m.primetimeshow.in/share-E082_5442A049.html&lt;/a&gt;\n &lt;a href=&quot;\nhttp://m.primetimeshow.in/share-46FD_5442A049.html&quot; rel=&quot;nofollow&quot; target=&quot;_NEW&quot;&gt;\nhttp://m.primetimeshow.in/share-46FD_5442A049.html&lt;/a&gt;\n\n\nGeneral\nUnique ID : 228897101840716989672049322998867017072 (0xAC33FA6F5E5909BDBE389E32D559BD70)\nComplete name : Entertainment (2014) - 720p - Blu-Ray - Hindi - x264 - AC3 - 5.1 - ESubs - Mafiaking - Team TellyTNT.mkv\nFormat : Matroska\nFormat version : Version 4 / Version 2\nFile size : 1.09 GiB\nDuration : 2h 19mn\nOverall bit rate : 1 126 Kbps\nMovie name : Entertainment (2014) - 720p - Blu-Ray - Hindi - x264 - AC3 - 5.1 - ESubs - Mafiaking - Team TellyTNT\nEncoded date : UTC 2014-10-17 18:57:22\nWriting application : mkvmerge v7.0.0 ('Where We Going') 64bit built on Jun 9 2014 15:16:27\nWriting library : libebml v1.3.0 + libmatroska v1.4.1\n\n\nVideo\nID : 1\nFormat : AVC\nFormat/Info : Advanced Video Codec\nFormat profile : &lt;a class=&quot;__cf_email__&quot; href=&quot;/cdn-cgi/l/email-protection&quot; data-cfemail=&quot;91d9f8f6f9d1dda5bfa0&quot;&gt;[email&amp;#160;protected]&lt;/a&gt;&lt;script cf-hash='f9e31' type=&quot;text/javascript&quot;&gt;\n/* &lt;![CDATA[ */!function(){try{var t=&quot;currentScript&quot;in document?document.currentScript:function(){for(var t=document.getElementsByTagName(&quot;script&quot;),e=t.length;e--;)if(t[e].getAttribute(&quot;cf-hash&quot;))return t[e]}();if(t&amp;&amp;t.previousSibling){var e,r,n,i,c=t.previousSibling,a=c.getAttribute(&quot;data-cfemail&quot;);if(a){for(e=&quot;&quot;,r=parseInt(a.substr(0,2),16),n=2;a.length-n;n+=2)i=parseInt(a.substr(n,2),16)^r,e+=String.fromCharCode(i);e=document.createTextNode(e),c.parentNode.replaceChild(e,c)}}}catch(u){}}();/* ]]&gt; */&lt;/script&gt;\nFormat settings, CABAC : Yes\nFormat settings, ReFrames : 4 frames\nCodec ID : V_MPEG4/ISO/AVC\nDuration : 2h 19mn\nBit rate : 900 Kbps\nWidth : 1 280 pixels\nHeight : 544 pixels\nDisplay aspect ratio : 2.35:1\nFrame rate mode : Constant\nFrame rate : 23.976 fps\nColor space : YUV\nChroma subsampling : 4:2:0\nBit depth : 8 bits\nScan type : Progressive\nBits/(Pixel*Frame) : 0.054\nStream size : 875 MiB (78%)\nTitle : Mafiaking\nWriting library : x264 core 142 r2431 ac76440\nLanguage : Hindi\nDefault : Yes\nForced : No\n\n\nAudio\nID : 2\nFormat : AC-3\nFormat/Info : Audio Coding 3\nMode extension : CM (complete main)\nFormat settings, Endianness : Big\nCodec ID : A_AC3\nDuration : 2h 19mn\nBit rate mode : Constant\nBit rate : 224 Kbps\nChannel(s) : 6 channels\nChannel positions : Front: L C R, Side: L R, LFE\nSampling rate : 48.0 KHz\nBit depth : 16 bits\nCompression mode : Lossy\nStream size : 223 MiB (20%)\nTitle : Mafiaking\nLanguage : Hindi\nDefault : Yes\nForced : No\n\nSAMPLE WITH IN TORRENT","torrent":{"xt":"urn:btih:f2c1d7531b8afbe5e87d00ef6e6a787fad843b41","amp;dn":"Entertainment+%282014%29+-+720p+-+Blu-Ray+-+Hindi+-+x264+-+AC3+-+5.1","amp;tr":["udp%3A%2F%2Ftracker.openbittorrent.com%3A80","udp%3A%2F%2Fopen.demonii.com%3A1337","udp%3A%2F%2Ftracker.coppersurfer.tk%3A6969","udp%3A%2F%2Fexodus.desync.com%3A6969"],"infoHash":"f2c1d7531b8afbe5e87d00ef6e6a787fad843b41","infoHashBuffer":{"type":"Buffer","data":[242,193,215,83,27,138,251,229,232,125,0,239,110,106,120,127,173,132,59,65]},"announce":[],"urlList":[]}}